<svg xmlns="http://www.w3.org/2000/svg" x="0px" y="0px" width="100" height="100" viewBox="0 0 64 64">
<path d="M30.413,40c-0.53,0-1.039-0.211-1.414-0.586l-6.517-6.517c-0.781-0.781-0.781-2.047,0-2.828	c0.781-0.781,2.047-0.781,2.828,0l5.103,5.103l9.121-9.121c0.781-0.781,2.047-0.781,2.828,0c0.781,0.781,0.781,2.047,0,2.828	L31.827,39.414C31.452,39.789,30.943,40,30.413,40z"></path><path fill="#060000" d="M32,54c-12.131,0-22-9.869-22-22s9.869-22,22-22s22,9.869,22,22S44.131,54,32,54z M32,14	c-9.925,0-18,8.075-18,18s8.075,18,18,18s18-8.075,18-18S41.925,14,32,14z"></path>
</svg>